<svg width="21" height="28" viewBox="0 0 21 28" fill="none" xmlns="http://www.w3.org/2000/svg">
<path d="M8.96 4C8.96 7.04 8.93333 9.65333 8.88 11.84H12.96L13.36 9.08C14.72 9.08 16.04 9.41333 17.32 10.08V18.08L14.68 18.2C14.04 17.24 13.6667 16.4 13.56 15.68H8.84C8.78667 19.4133 8.76 22.2267 8.76 24.12H15.6L16.48 20.64C18.1333 20.64 19.3867 20.72 20.24 20.88C20.64 22.4 20.84 23.7867 20.84 25.04C20.84 26.2667 20.8 27.2533 20.72 28H0.88L0.52 25.8C2.25333 25.1333 3.37333 24.7467 3.88 24.64C3.85333 23.0667 3.82667 20.8533 3.8 18C3.69333 11.6 3.6 6.76 3.52 3.48L0.2 2.44L0.52 -1.90735e-06H20.16C20.24 0.719998 20.28 1.62667 20.28 2.72C20.28 3.78667 20.08 5.28 19.68 7.2C18.8533 7.46666 17.6 7.6 15.92 7.6L15 4H8.96Z" fill="black"/>
</svg>
